<svg id="Layer_1" data-name="Layer 1" xmlns="http://www.w3.org/2000/svg" viewBox="0 0 224.6177 328.4014"><defs><style>.cls-1,.cls-2,.cls-3,.cls-4,.cls-5,.cls-6{fill-rule:evenodd;}.cls-2{fill:#dfc3b3;}.cls-3{fill:#f99e1a;}.cls-4{fill:#ffc54a;}.cls-5{fill:#95283b;}.cls-6{fill:#b01a35;}.cls-7{fill:#0b0b0b;}</style></defs><title>LCHS_Mascot_FullColor</title><path class="cls-1" d="M239.555,189.1679c1.4529-2.5964,1.9493-5.6347-.0086-7.8189-4.9707-5.5386-9.9861-11.0431-14.7625-16.7482a9.7116,9.7116,0,0,1-2.08-5.2761c-.2925-4.5244-.4869-13.3457-.24-17.8755a6.2763,6.2763,0,0,1,1.5822-4.2542c.8156-.2968,2.5845-4.2169.1355-6.8016.5445-6.53-.1355-25.986-3.6735-40.27,4.218-4.49,1.2982-9.2986-4.3568-9.8719-10.173-1.0323-22.7885,6.0222-31.4563,10.0054,2.1817-4.4868,5.8167-11.9188,7.5649-16.6158,4.5126-12.1416,11.46-22.19,18.2429-32.4033,1.1347-1.7123,2.3112-3.3885,3.428-5.0239-2.46-6.4985-9.841-8.1488-14.9728-13.6576-1.4082-.4175-1.7862,2.2387-2.9029,1.9707a52.9293,52.9293,0,0,0-9.9369-10.001c-.9225,1.5426-1.9036,5.4478-2.8452,7.4644-.36-.33-2.4543-1.5159-2.6283-1.9151L175.88,12.9874c-2.8387-.5839-14.3792-2.4554-17.19-3.2807-2.243-.6565-3.1547-.1932-3.301,2.5825-.1131,2.2013-1.02,4.2-1.6226,6.5165-.8958-1.3473-1.6282-2.3819-2.23-3.4023-3.3735-5.73-3.5742-6.2518-9.2078-5.2643-4.8085.839-8.6772,4.1294-14.9461.7-.219.078-.4421.157-.6631.2348.3737,5.5045.2413,6.6041-.0544,8.8748-2.2013-1.913-5.1884-2.8738-7.47-4.7977-4.9065,1.7274-10.9448,4.0462-15.8481,5.7757a25.4438,25.4438,0,0,0-.3705,2.8835,29.981,29.981,0,0,1-2.8365-2.4031c-4.0557,3.2475-21.1413,14.5-22.9937,16.4247A97.3085,97.3085,0,0,1,79.95,48.2292c-1.3857-2.1618-3.5561-6.4449-4.75-8.3538-5.245,4.9152-11.5629,10.6534-16.9511,16.3158.2488,1.3666,1.2845,5.27,1.2845,5.27S57.9789,59.27,56.987,58.0264c-3.6211,5.1938-6.2709,9.1534-9.58,14.6323-.6566,1.0911-.1346,3.2369-.159,4.9023-.9536-.0949-2.34-.2273-3.86-.3789.5147,1.8671.9843,3.5764,1.75,6.36-1.82-1.6494-2.9038-2.6284-4.8947-4.43-6.1717,11.88-16.3822,40.6685-16.4825,49.396,0,0,5.2056,7.0759,5.8814,8.0218-2.589-.8093-4.7262-1.484-7.3077-2.2964-.6875,7.8851-2.1137,22.9156-1.6761,31.9452,2.3328-.3758,4.1466-.6683,5.9593-.9545.2519.3459.5038.7046.7558,1.0548-5.09,3.1942-6.6691,3.634-6.6691,3.634l.2156,9.984c1.5831.3886,2.9785.7729,4.3471,1.1081.0406.1517.1175.4165.1538.5724-2.7137.2048-5.5909-.0663-8.5534.16-1.3634,13.6992-.52,26.0361,1.98,42.0626,2.5185-.8862,4.8426-1.7081,7.1645-2.5238.0054-.0021.2188.5722.2788.7174-.7463.7-6.34,3.9928-6.34,3.9928s2,7.8659,3.1675,12.3605l5.4745-.7837c-1.5875,1.61-2.8654,2.9636-4.3162,4.43,1.7124,2.27,3.3351,4.43,4.91,6.5186C39.435,240.653,49.53,232.67,61.6151,228.4014a93.6239,93.6239,0,0,0,9.5238-4.7442c.7838-3.5108,1.0282-3.4447,2.858-7.04a70.1054,70.1054,0,0,1-6.6158-16.0716c2.7656,9.6657,6.9722,17.6009,11.6323,22.6328-.2423,2.8163-1.6056,6.8048-2.1384,9.258-1.3313,6.1345-3.1889,12.1556-4.4666,18.2984-.7037,3.38-1.9516,6.7322-4.6793,8.103-9.25,4.6461-34.8693,25.0881-29.4417,26.3649,16.7834,3.9458,19.5645,12.8622,35.2034,25.4512,16.7525,13.4855,35.3209,22.5259,56.4441,26.0274,15.9262,2.6391,31.5212.6151,46.9052-4.36,19.6316-6.3456,22.7907-22.6775,59.3061-13.8679,2.8408-1.8469-4.2628-22.165-17.6973-24.7017-6.4524-1.2191-8.7851-1.8959-12.7822-3.7108-1.9225-.8754-2.6048-4.1594-4.3962-5.7308-1.658-1.4518-4.0462-2.0754-6.7044-2.464-2.5067-5.0133-6.7963-10.2658-2.3252-16.8976a8.8607,8.8607,0,0,0,1.1284-5.3017c-.29-3.6917,1.6643-4.8745,4.7785-5.5513,5.072-1.1038,10.0459-2.7117,15.149-3.6a100.22,100.22,0,0,1,12.92-1.042c3.8935-.1623,10.1782,1.86,11.8148-.2285.8167-.9971,2.3156-10.1633-3.6191-14.0237-3.965-2.5792-4.3856-11.1924-1.7455-15.215,3.1377-4.7785,2.8953-6.9906-1.39-11.4446,3.3554-2.8739,2.9-6.2261.4858-9.2751C229.8709,196.8758,237.6345,192.597,239.555,189.1679Z" transform="translate(-16.2186 -9.4427)"/><path class="cls-2" d="M155.9144,279.0624c-1.5064-6.8624-2.54-13.8742-4.6931-20.5274-2.038-8.9506-8.6816-12.2-12.4576-11.4829-4.7027.8925-.8466,12.17.08,16.018.3064,1.2683,2.0775,3.8561,1.454,4.535s-4.3482-3.224-7.0236-2.0881c-3.6628,1.5544-2.875,5.9187-4.8991,6.1364-2.0241.22-6.682-4.1678-9.8431-6.4909-3.67-2.6988-14.17,3.0063-11.1829,5.94,4.05,3.9756,9.6317,6.0382,14.26,9.3221,5.2557,3.7279,10.3512,7.6993,15.3624,11.7561,6.0254,4.881,11.8566,9.9968,17.8318,14.9419,4.6269,3.8262,9.2655,7.6439,14.0387,11.2865,7.1133,5.4232,10.1911,2.11,14.0536-2.4726.9587-1.1359,1.77-2.4,2.6327-3.5828,7.9139,5.1159,10.3288,4.1849,11.6131-4.77a57.4053,57.4053,0,0,0,.001-12.6573c-.1355-1.6867-1.3152-3.4333-2.3956-4.8724-2.0241-2.69-3.7664-3.7151-5.5226-6.5955-1.07-1.753-1.928-4.1785-3.9628-3.9137-2.0349.269-4.9878,10.8252-7.3535,15.9624-.426.0427-.91,1.2534-2.1811.6747s-.2968-4.4155.0993-6.1151c1.2736-5.4788,1.3163-10.4367-1.9835-15.4671-3.221-4.9109-2.6263-16.0008-1.6676-15.9838s2.2238,2.1993,2.5056,3.4675c.1986.8968,1.28,8.2716,5.0646,8.9933,3.6917-.7217,4.5233-2.9316,5.072-4.881,1.0207-3.6169,1.5769-4.7955,1.0666-8.5235-.4441-3.2369-2.64-7.977-7.06-8.22a45.8419,45.8419,0,0,0-12.417,1.0847,7.3681,7.3681,0,0,0-4.5864,4.4219c-3.0361,11.2245-1.4732,22.2591-.7782,34.011.1783,3.0212.7142,6.0211,1.0558,9.0317-.6619.0512-1.3249.0982-1.9879.1451Q158.0122,288.6024,155.9144,279.0624Z" transform="translate(-16.2186 -9.4427)"/><path class="cls-3" d="M107.96,185.2905c-4.029.5722-7.8552,2.0156-11.3387,1.4263-7.6609-1.2939-10.7313-7.8147-12.9145-14.2757-2.0668-6.1151-1.2448-12.4864.7922-18.5791,3.0521-9.1267,10.2007-14.0845,20.31-14.4176a53.4015,53.4015,0,0,0,5.6742-.8423c-3.1174-4.7-5.513-8.608-8.2236-12.2836-1.54-2.09-1.6024-3.7141.301-5.418,3.0053-2.6914,5.8226-5.6454,9.082-7.9823,2.939-2.1074,4.0984.7292,5.0175,2.8056,2.416,5.4575,4.5608,11.0366,7.0173,16.4749,1.9173,4.2468,4.1432,5.0358,7.6887,2.1085a140.57,140.57,0,0,0,15.9069-14.85c1.5491-1.7476-5.7959-17.9588,3.1868-21.1007,3.6447-1.2747,10.75-2.0038,23.3266.4516q.0272-.8552.0533-1.7092c-23.38-6.9414-48.0752,1.1925-63.1313,11.9633-11.5747,8.2791-21.5886,18.1339-27.5564,31.2993-6.0168,13.2679-8.7413,27.0493-6.42,41.8118,1.3227,8.4125,2.432,16.699,7.17,23.9692,4.2276,6.4867,12.1309,7.8831,18.4115,3.3331,2.1117-1.5288,4.0781-3.2605,6.603-5.2974-1.263,5.8247-6.0041,7.6417-9.5517,10.5327a11.6925,11.6925,0,0,1-1.1893.7153c-12.5259,7.9941-11.6985,3.4248-16.1193-5.7179a83.0221,83.0221,0,0,1-7.8777-43.2071c1.1946-15.2045,8.5129-31.8294,16.0468-40.98,7.5678-9.1919,17.8913-18.7408,28.9271-23.7195a157.0033,157.0033,0,0,1,21.1082-7.36c3.7141-1.0719,7.8222-.9683,7.4186-6.3991,12.2334-1.2608,23.8156.7431,35.16,4.8319q.2529-.8872.5049-1.7743c-20.9923-9.2332-53.6544-6.5881-79.4119,10.3656-13.0469,8.7724-19.88,16.7146-27.6086,30.4917-9.1919,16.3884-12.1972,33.9587-10.536,52.24,1.1135,12.2472,6.7876,31.2545,16.0073,37.8436-2.2078,8.2417-9.5442,31.8907-7.6428,34.0771,1.06,1.2213,4.2052,1.4433,5.6549.6662,15.8365-8.4937,31.4147-17.2991,37.7315-35.9284,2.2312-6.5784,2.417-12.0145-3.6735-16.9382a16.3584,16.3584,0,0,1-5.9208-14.4336C108.058,187.968,107.96,186.4349,107.96,185.2905Z" transform="translate(-16.2186 -9.4427)"/><path class="cls-4" d="M195.244,134.6552c5.2237-3.2668,10.047-5.9923,14.49-9.2367a7.2049,7.2049,0,0,0,2.4416-5.1991,147.1458,147.1458,0,0,0-1.2042-19.95c-.8082-5.4073-4.95-7.2392-10.5872-5.6379a17.5591,17.5591,0,0,1-5.5055,1.1253q1.4957-1.3324,2.9924-2.6626c-.0832-.1953-.1654-.39-.25-.585a48.1663,48.1663,0,0,0-6.5069,3.0394c-14.4571,9.5015-28.8748,19.1289-40.568,32.0637a68.6482,68.6482,0,0,0-9.5357,14.0333c-1.0654,2.022-.7238,5.5717.3993,7.6642.6684,1.248,4.3205,1.8383,6.2464,1.3131,10.91-2.9775,21.6911-6.42,32.5409-9.6221,4.2448-1.2523,10.1218-2.781,14.407-3.8967C197.298,136.4028,195.8878,136.6089,195.244,134.6552Z" transform="translate(-16.2186 -9.4427)"/><path class="cls-4" d="M178.0176,224.8251c-.7143-1.7551-.773-2.4426-1.1424-2.7245-3.2593-2.4789-2.29-4.6461.4271-6.6915a33.0082,33.0082,0,0,0,12.6508-19.1183c1.3035-5.3677,2.465-9.7619-3.6095-14.1475a58.4672,58.4672,0,0,1-19.14-22.7245c-1.627-3.5124-5.1222-3.8518-7.9716-2.6754-8.1232,3.35-16.1984,6.9158-23.9426,11.0516-5.6731,3.0276-6.6008,6.35-2.7063,11.295,8.3314,10.5754,17.1037,20.8349,26.1867,30.774,4.2286,4.627,9.5719,8.2482,14.4774,12.2431A39.1479,39.1479,0,0,0,178.0176,224.8251Z" transform="translate(-16.2186 -9.4427)"/><path class="cls-2" d="M217.89,211.5359c2.4565-1.4391,5.0069-2.7416,7.3364-4.3622,1.7925-1.2469,3.6287-3.3415,3.1931-5.4019-1.6173-7.6546-15.8044,4.249-18.93,6.5784a66.3582,66.3582,0,0,0,8.2257-18.4819c.1879,2.1949-.1985,6.6446.6032,7.0417,4.5116-4.8767,8.9751-4.7016,14.3216-5.0881,1.9131-.1387,5.1874-2.9785,5.9453-5.0859.5338-1.48-1.011-4.1657-2.3038-5.7671-4.2415-5.2482-8.7851-10.2509-13.2241-15.339-2.7693-3.1771-3.2647-6.9883-3.2134-10.996.0523-4.1614.0117-8.3261.0117-12.8046-12.9508-.96-32.243,6.7556-38.5279,10.3321a25.4829,25.4829,0,0,1-.9031,5.039c9.9071-2.1737,18.5449-3.9875,27.141-5.98,6.4568-1.4956,7.5841-.7516,7.5874,5.6.0021,5.9763.12,11.9569-.0951,17.9268-.127,3.5358-1.2277,2.1437-1.8864,3.2155-.9042-.8242-3.5028-4.6973-4.2725-5.3848-2.5856-2.3146-9.5313-4.8895-10.51-4.36-1.0078.5423.1569,3.8368-.0555,4.6226-.5914,2.1842-.2722,3.2646-2.6935,5.2632,4.6931,3.6383,2.6615,10.9363,4.3824,17.0855,3.4632,12.3754,8.5171,23.7515,18.3015,32.4459a46.6977,46.6977,0,0,0,8.0571,5.261,3.1266,3.1266,0,0,0,2.8654-.0982,3.52,3.52,0,0,0,.5679-2.827c-1.1615-6.38-5.0229-10.2209-11.4733-12.1191,1.5971-.2541,3.19-.5424,4.7934-.7516,1.6719-.2178,3.475-.0406,4.9974-.6192,1.4412-.5509,3.871-.9438,3.871-2.8355,0-1.896-3.2636-2.464-4.8959-2.464-2.9572-.0042-5.9144.94-8.87,1.49C218.12,212.2917,218.0048,211.9159,217.89,211.5359Z" transform="translate(-16.2186 -9.4427)"/><path class="cls-3" d="M221.0528,85.3608c-.2723-4.3536-9.65-3.9351-14.6868-2.5462-12.1191,3.3437-22.0038,10.85-31.81,18.0794a373.3805,373.3805,0,0,0-33.1248,27.4742c-9.1395,8.5279-19.04,13.6256-31.6815,13.0458a46.2817,46.2817,0,0,0-8.2364.8146c-13.2871,1.8149-15.9112,10.7975-17.01,21.0783-.7452,6.9606,2.3326,12.9049,6.1183,18.4243,2.23,3.2518,8.6943,4.7571,12.0615,2.65,4.8063-3.0106,9.1289-6.8069,13.9928-9.7064q10.5834-6.3094,21.6665-11.769c8.6954-4.2832,17.3353-8.9645,26.4952-11.958,17.2755-5.6443,34.9056-10.2007,52.3861-15.2194,1.3761-.395,2.7309-.8636,4.0963-1.2992q-.1168-.5654-.2349-1.1306c-4.6354.8113-9.3125,1.4391-13.9,2.4661-21.7081,4.8607-42.9519,11.216-63.0245,20.9363-3.3127,1.6057-6.3425,3.0106-10.0193,2.5024-3.35-.4612-4.2831-2.4554-4.07-5.6913.4452-6.7342,4.0515-11.9227,8.2706-16.5667A219.9477,219.9477,0,0,1,192.0167,93.48c7.9823-4.5724,16.0276-7.4368,25.3155-6.2581C218.4361,87.3614,221.2043,87.7852,221.0528,85.3608Z" transform="translate(-16.2186 -9.4427)"/><path class="cls-5" d="M71.91,304.4794c26.8209,23.1963,56.9351,33.8764,93.203,27.1891a47.3968,47.3968,0,0,0-4.1028-4.1721c-4.4635-3.506-7.9011-8.9378-14.9749-7.64-1.4.2562-3.1579-.9907-4.6461-1.7508-4.6931-2.3914-9.3-4.9494-14.0024-7.3194-12.7138-6.41-25.387-13.0629-39.9253-14.2073C82.1,296.1522,76.005,299.5386,71.91,304.4794Z" transform="translate(-16.2186 -9.4427)"/><path class="cls-5" d="M110.1184,297.8091c-1.817-1.3-4.249-.79-5.893-1.896-7.1507-4.8127-15.13-6.5079-23.5263-6.935-5.89-.3032-6.4183-.5039-12.3124-.664-1.2405-.0342-11.1925-4.896-15.9806-3.2989-1.9152,1.2768,7.866,7.0589,8.6581,8.2375a22.5766,22.5766,0,0,0,3.8134,4.6119c2.6038,2.2334,4.7817,4.787,9.08,1.6569,7.7079-5.6155,16.3457-6.2945,25.3977-2.69,13.6362,5.4276,38.8973,16.1589,46.966,16.966-1.3163-3.2818-4.8757-11.0388-11.6334-12.99-13.191-3.8091-23.9629-12.1662-34.6291-20.4335-5.0037-3.8817-13.8636-5.6091-19.56-5.2546a152.1108,152.1108,0,0,0-15.939,2.5323c-1.3611.3117-3.7877,1.33-3.8528,1.9366-.2242,2.0924,2.2664,2.2675,3.6169,2.6668,5.8557,1.7273,20.662,3.9479,26.4546,5.8439C97.5092,290.3062,109.7746,295.5159,110.1184,297.8091Z" transform="translate(-16.2186 -9.4427)"/><path class="cls-2" d="M199.194,244.3874c-3.5529-1.4284-7.0695-2.9508-10.6629-4.266-13.8135-5.0582-26.2849-12.5548-38.1126-21.1424-5.6667-4.1123-13.4505-1.4134-14.14,5.6283-1.1712,11.9612,2.35,20.7709,17.77,21.1466,4.8.1153,9.5965.8712,14.3857.7986,10.1719-.1537,20.3374-.6619,30.5061-1.0249Q199.0665,244.9575,199.194,244.3874Z" transform="translate(-16.2186 -9.4427)"/><path class="cls-3" d="M215.9625,234.6853c4.8639,1.6568,10.553,1.4433,10.1944,9.5655,4.8275,2.6006,10.4057-4.0653,6.0734-6.3969-17.31-5.9913-26.2358-19.5325-31.9879-35.6316-1.9355-5.4148-2.4629-11.3206-3.9864-16.9062-.5188-1.9045-1.7049-4.1934-3.287-5.15-10.0192-6.051-14.9077-9.7747-22.2986-26.2924-.1985-.1334-.5615-.0234-1.5629-.0234,3.63,10.4729,6.12,18.07,17.73,26.0148,6.5688,4.4945,7.5115,4.9215,5.5952,13.8038a99.1356,99.1356,0,0,1-5.513,16.9617c-3.0448,7.3321-3.6885,11.7305,3.92,15.9389,2.1406,1.185,13.8732,5.2931,12.7149,11.2587-.0918.474,5.6433,2.0028,8.6559,2.9124C213.9779,241.2744,216.5636,238.1442,215.9625,234.6853Z" transform="translate(-16.2186 -9.4427)"/><path class="cls-6" d="M133.429,292.7915c.632-4.582-19.4929-14.3483-29.15-21.326-8.95-6.4653-16.2038-8.5278-29.4525-8.673C63.8986,262.6687,50.84,274.13,45.3825,278.6311c-.6192.5957-.158,1.3772.3288,1.3217,4.17-.7025,19.2036-8.0944,23.2829-9.1449,12.9988-3.3565,24.1059-1.14,34.5458,8.1349,6.5795,5.8461,12.6732,13.2039,22.1427,15.1085C128.3142,294.5808,132.6038,296.7735,133.429,292.7915Z" transform="translate(-16.2186 -9.4427)"/><path class="cls-2" d="M137.4121,198.17c-3.5144,4.328-6.6563,1.7551-9.6434.0363-3.7472-2.1565-2.5163-7.851-1.7658-9.0382.7505-1.1913-4.1657-2.12-6.5443,2.4341-3.1215,5.9742,1.3153,9.8644,5.3817,11.9142-11.375-1.2512-8.9175-13.3447-11.4327-14.4828-1.0975-.4975-5.79,6.7194-.7441,10.7976,7.2521,5.8609,13.5508,10.6416,22.226,14.8671,2.1629,1.0526,6.2143-.6812,7.1207-2.0263,1.6868-2.5024,2.4843-5.2909.2157-9.0275C141.153,201.8785,139.2516,200.1576,137.4121,198.17Z" transform="translate(-16.2186 -9.4427)"/><path class="cls-3" d="M122.2792,174.0638c24.8447,38.2386,51.8364,65.8483,103.3663,73.7185q.3587-.6468.7163-1.2939c-33.0864-7.0076-49.9638-17.7132-64.9377-30.9875-13.4216-11.8993-32.9041-36.7733-37.08-43.7094C123.9671,172.2847,122.656,173.5706,122.2792,174.0638Z" transform="translate(-16.2186 -9.4427)"/><path class="cls-6" d="M146.7567,302.0367c-.78,7.3236,3.0533,10.8936,6.2571,14.4209a122.9955,122.9955,0,0,0,13.6372,12.653c1.3559,1.1017,4.1988,1.3238,5.9827.7558,5.5162-1.7423,16.634-4.4881,17.4891-7.377.3513-1.185-.9811-4.7315-1.91-4.9557-2.2248-.5359-10.4238,12.0359-17.2478,5.0091-6.399-3.775-11.9974-8.9378-17.7965-13.6864C151.106,307.17,149.4705,304.9576,146.7567,302.0367Z" transform="translate(-16.2186 -9.4427)"/><path class="cls-3" d="M205.95,90.2546c7.0887.8647,8.9581,2.2408,9.9135,10.6085,1.12,9.81,1.074,19.7534,1.5523,30.0481,1.7989.158,3.6265.5925,4.4838-3.2091,2.0487-9.082-.5231-17.73-1.4433-26.5412-.094-.9031-.4591-1.7753-.5925-2.6785C218.4383,88.808,216.3319,87.4639,205.95,90.2546Z" transform="translate(-16.2186 -9.4427)"/><path class="cls-6" d="M206.5038,292.8513c1.9355,6.1364,1.6515,16.0841,1.0836,20.9139,4.9439-4.1786,23.017,2.6988,23.9533-.1239C231.8833,298.1358,210.7324,293.274,206.5038,292.8513Z" transform="translate(-16.2186 -9.4427)"/><path class="cls-5" d="M198.2984,284.174c-.7174.9053-.474,3.0767.0917,4.1443,5.0881,9.5976,3.1227,27.5222,5.0881,25.1458C208.3646,309.2023,205.6593,293.3466,198.2984,284.174Z" transform="translate(-16.2186 -9.4427)"/><path class="cls-2" d="M209.8122,160.3433c.221-2.4683-5.2493-2.02-7.5147-.9993a31.7007,31.7007,0,0,0-6.4887,4.1038c-.536.3929-2.51,1.6377-1.8106,3.0747C195.4436,169.4924,209.5912,162.8094,209.8122,160.3433Z" transform="translate(-16.2186 -9.4427)"/><path class="cls-1" d="M117.363,159.5106c.1871-8.3154-6.55-14.2469-12.65-14.3013-7.5852-.0673-14.4305,8.341-13.7772,16.6329.537,6.8239,5.1885,14.25,12.91,13.99C112.31,175.5456,117.1759,167.826,117.363,159.5106Z" transform="translate(-16.2186 -9.4427)"/><path class="cls-4" d="M115.48,160.7618c.0128-8.293-4.4924-13.6575-10.5413-13.7654-5.95-.1067-11.865,6.1365-12.0231,12.685-.1783,7.4389,2.1213,11.47,7.5147,13.1782a11.2044,11.2044,0,0,0,14.7487-9.1556C115.39,162.3333,115.4627,160.9411,115.48,160.7618Z" transform="translate(-16.2186 -9.4427)"/><path class="cls-1" d="M107.6181,151.0009c1.4386,7.8382.7308,12.58-2.3833,12.2972s-4.6328-4.4537-4.8741-5.9013c-2.0807,2.7928-3.4878,4.68-4.9631,6.6617,2.1287,3.1558,5.33,7.4688,11.3377,5.2567,4.535-1.6718,6.5549-6.1279,5.92-11.9227C112.2963,154.1289,110.2732,151.5987,107.6181,151.0009Z" transform="translate(-16.2186 -9.4427)"/><path class="cls-6" d="M134.0108,25.8c-.2839-.0193-.5637-.04-.8412-.0609-.3278-3.1867-.648-6.382-.9715-9.557l-2.7938-.4868c.348,7.756-.2926,19.6926.4366,27.4453.7516,7.9706,2.3294,15.9486,3.5166,23.7388a3.7119,3.7119,0,0,1-1.51-1.121c-1.9109-3.0052-4.4752-5.9443-5.3613-9.2378-3.238-12.0807-5.8995-24.2938-8.7841-36.4717-1.0729.3769-2.5964.9128-4.1006,1.4455.4452,4.55.87,8.9591,1.2971,13.3682-1.3772-3.3447-1.9408-6.74-2.8387-10.0576-.2989-1.0975-1.4593-1.9932-2.23-2.985-.2861,1.0975-.9267,2.1971-.8093,3.2913.7548,6.8251,1.6826,13.6448,2.5537,20.4666-.1794.0278-.3577.05-.537.0812q-2.3349-11.208-4.6739-22.4107c-.3213.05-.6394.1057-.96.1612.0341,1.7872.0661,3.5807.11,6.0649-1.7315-1.6152-2.9465-2.749-4.0568-3.7845-5.6251,3.5337-11.0847,6.9616-16.8378,10.5744C89.196,46.234,93.6286,55.9,98.0655,65.5647c-.3.1451-.5958.2882-.89.4312-1.3259-2.6838-2.621-5.3912-3.99-8.0516-3.0532-5.9283-7.4047-14.2821-10.5978-20.12l-2.9252,3.22C81.1945,45.09,91.01,73.3858,95.3442,85.9138c-.51.2445-1.0217.4868-1.5341.7313C87.33,74.47,80.8507,62.2936,73.9275,49.29,71.1507,51.9,66.8323,56.296,63.8538,58.5656c.4473,1.359,4.8639,15.7682,5.0667,16.59-2.1629-4.9248-4.486-10.1858-6.6478-15.1073l-1.09.8722c1.8469,6.5144,5.3753,12.3679,8.2225,18.47,3.3805,7.2411,6.5005,13.5411,9.37,19.49-.2531.1452-.505.2915-.7623.4345-6.18-11.73-12.36-23.4643-18.7307-35.5483-.9886,1.2288-1.7177,2.13-2.3732,2.938,3.1077,5.7522,8.5449,16.55,9.5932,18.9368C63.2089,80.8161,58.628,74.1555,55.264,69.2254c-1.8682,2.465-3.3724,4.4528-4.8371,6.3927,3.7077,5.0133,17.9011,25.2268,20.2594,30.28l-.5765,1.7754c-8.5193-6.8742-19.1406-15.1447-27.582-21.9473A172.6855,172.6855,0,0,0,31.9449,111.63l7.0972,5.6923a4.5935,4.5935,0,0,1-.2689.8359c-1.295-.3438-7.8585-1.54-9.06-1.8566a29.0228,29.0228,0,0,0-1.7924,6.6661c7.5168,1.99,20.3993,4.8393,27.693,6.7737-.0288.3342-.06.6683-.0886.9993-6.193-1.0291-22.5089-3.1846-28.7019-4.1369,0,0,1.5832,2.6135,2.5942,4.15,7.6247,1.1306,19.3094,2.65,27.4731,3.855-6.7951,9.4609-23.0212,5.1757-31.3825,5.3753-.0908,3.286-.1751,6.3638-.2563,9.42,1.9964.5584,10.2947.127,12.1224.6277.0064.2851.0086.5669.0213.8456-1.7647.126-10.66.933-12.7992,1.0825.0406.8338.0886,6.8677.1388,7.6791,6.6051.8583,20.8584.5445,27.3237,1.3857-7.3834,3.4995-26.6479,10.332-26.6479,10.332l.2018,4.3173c2.8344-.9971,5.7532-2.0241,8.673-3.0511-.7676,1.2854-4.5831,3.4077-5.3069,4.0055q15.1713,2.5142,30.1228,4.9985c.5947-25.0113,5.34-47.3461,17.9588-65.6925,12.2366-17.8,37.7913-34.21,48.4105-36.4429-2.36,1.5661-4.5522,3.0586-6.7759,4.4871-2.2377,1.4391-4.5554,2.7436-6.7621,4.2425-2.3,1.5587-4.5148,3.2572-6.75,4.9269-2.1394,1.5993-4.2959,3.1824-6.3735,4.88-1.9237,1.579-3.7514,3.2956-5.6208,4.9536,23.7868-16.0458,49.034-26.49,80.09-22.2067,2.1673-6.55,4.6227-13.9875,7.0877-21.4221,2.1362-6.4215,4.2479-12.8611,6.4482-19.2517,1.5544-4.5222,2.5035-9.7363,5.0913-13.2294,2.2622-3.0629.7505-3.97-.9512-5.7286-1.1456-1.1776-2.338-2.2921-3.744-3.665-4.2928,17.2873-8.1617,32.9017-12.037,48.5108-.2444-.094-.4911-.1911-.7387-.2851-.1282-16.54-.2605-33.0736-.3929-50.0214-4.2864-.6224-8.119-1.1765-12.1363-1.7594-.0651,2.3017-.1206,4.2255-.1964,6.9019-1.2042-2.923-2.0764-5.0315-2.9455-7.1431q-.3587.0768-.7184.1451-1.3917,25.0455-2.7853,50.09c-5.639-10.332-10.79-38.4745-7.5735-49.8431-4.3621.5764-8.563,1.139-13.2539,1.7636C134.2873,19.2488,134.15,22.5241,134.0108,25.8Z" transform="translate(-16.2186 -9.4427)"/><path class="cls-5" d="M176.1151,81.889a56.6058,56.6058,0,0,0,5.5141,4.6258,2.3436,2.3436,0,0,0,2.576-.8177c2.2847-4.5693,4.3536-9.304,6.476-13.9949.1153-.2541,8.5983-15.9646,8.6463-16.5678-.7035.4195-9.668,16.0126-10.6267,16.587,3.6105-15.69,13.56-24.7636,22.1277-35.1981-.7953-.9074-1.6782-1.9163-2.575-2.9337-3.6468,5.24-7.2478,10.4185-10.853,15.592a33.1936,33.1936,0,0,1,4.0472-8.5471c1.5288-2.5654,3.032-5.1564,4.69-7.9759-1.8768-1.5811-3.5145-2.9593-5.024-4.235-1.4167,2.4213-2.4992,4.2713-3.58,6.1225-.1323-.1089-.2572-.2178-.3853-.3245.7964-3.0511,1.5939-6.1,2.4277-9.2944C196.8593,24.8621,182.5292,58.9563,176.1151,81.889Z" transform="translate(-16.2186 -9.4427)"/><path class="cls-5" d="M150.74,40.2919c.14-5.923,1.3409-13.0683,2.3679-19.4161L150.0459,16.38C147.9513,23.8885,149.195,32.4409,150.74,40.2919Z" transform="translate(-16.2186 -9.4427)"/><path class="cls-5" d="M126.37,24.06l-5.1735-4.5884c1.2224,5.8973,3.8475,15.1575,5.1692,21.5352C126.351,34.96,126.37,24.06,126.37,24.06Z" transform="translate(-16.2186 -9.4427)"/><path class="cls-6" d="M65.0292,99.8969c-3.3832-4.1134-13.1857-14.29-17.139-19.0883l1.2022,4.14c1.46,1.5256,11.643,11.8864,15.3229,15.6422C64.6214,100.3581,64.8253,100.13,65.0292,99.8969Z" transform="translate(-16.2186 -9.4427)"/><path class="cls-5" d="M76.2153,47.1937l-1.0858.9438c2.4128,4.3877,5.25,9.3135,7.6674,13.6981C81.708,56.9013,79.7287,51.04,76.2153,47.1937Z" transform="translate(-16.2186 -9.4427)"/><path class="cls-1" d="M158.8,27.3944q-.7158,16.6477-1.43,33.2882C157.7517,60.7211,161.5886,39.0193,158.8,27.3944Z" transform="translate(-16.2186 -9.4427)"/><path class="cls-1" d="M131.0184,32.41c-.4174,11.5918,2.6295,22.78,6.477,33.7739Q134.2607,49.2974,131.0184,32.41Z" transform="translate(-16.2186 -9.4427)"/><path class="cls-1" d="M192.0584,41.1491c-2.8654,3.86-11.7573,33.2391-11.7573,33.2391C183.1846,71.321,188.135,50.3655,192.0584,41.1491Z" transform="translate(-16.2186 -9.4427)"/><path class="cls-1" d="M184.8127,66.328c2.9219-2.3562,4.2906-12.2591,3.8241-15.4864C187.3824,56.3,184.7934,64.0572,184.8127,66.328Z" transform="translate(-16.2186 -9.4427)"/><path class="cls-5" d="M177.3738,34.29c.32-4.1668,2.0059-12.8611,2.0059-12.8611a25.7311,25.7311,0,0,0-2.387-3.6608C177.1325,23.8255,177.2521,28.7994,177.3738,34.29Z" transform="translate(-16.2186 -9.4427)"/><path class="cls-6" d="M60.66,190.5131a4.187,4.187,0,0,0-2.27-2.1864c-4.218-1.1936-8.4552-2.3466-12.6978-3.1173-3.69-.6683-7.3919-.8114-11.0879-1.1872.0064.316.0128.6277.0235.948a54.419,54.419,0,0,1,16.45,4.2832c-10.2979-.6961-31.3153-2.1352-31.3153-2.1352a69.9318,69.9318,0,0,0,.0053,9.2815c1.3291-.1687,2.6049-.47,3.934-.6384.0758.3352.06.3993.1345.7345-1.57.6534-3.3266.7644-4.8126,1.3836.7345,6.9307,2.45,16.5411,1.8074,19.588,4.8618-1.7146,9.3979-3.3117,14.7443-5.1928a23.62,23.62,0,0,1-5.6208,1.6078c11.4509-5.7457,28.3186-4.7742,31.2417.7281-4.9173.9565-10.0769,1.358-14.7935,3.0191-6.6617,2.3487-17.0951,7.503-23.538,10.4538l1.8266,7.6353q5.7265-1.1978,11.48-2.4042c.0609.2349.1175.4654.1773.7-2.5142,2.5452-5.0316,5.0945-7.7432,7.8425q1.0953,1.3419,2.164,2.6518c11.7423-11.1007,25.465-18.1125,39.55-24.6589-.9747-2.7672-3.5785-10.4815-4.0739-12.4224a23.1063,23.1063,0,0,0-4.4592-1.2875c-2.227-.48-14.8-1.975-18.8588-2.1245a40.1386,40.1386,0,0,1,22.8259.7516C64.0182,199.8437,62.44,195.1378,60.66,190.5131Z" transform="translate(-16.2186 -9.4427)"/><path class="cls-3" d="M189.4925,327.8707c4.0269,2.4221,8.317,1.985,10.8225-.1611,3.4111-2.9208,4.0528-7.2691,2.6288-12.2619a22.5408,22.5408,0,0,0-2.4152-4.6579c-3.1183-5.4074-9.8131-7.4751-13.9737-5.3654-3.3607,1.7063-4.8366,4.9087-4.8709,10.1368C181.5622,319.4346,184.6462,324.96,189.4925,327.8707Z" transform="translate(-16.2186 -9.4427)"/><path class="cls-7" d="M195.1042,330.2278h-.0006a11.6641,11.6641,0,0,1-5.9811-1.7429c-4.131-2.481-8.3111-8.002-8.1552-12.946.0357-5.5268,1.7081-8.9495,5.2631-10.7537a8.8023,8.8023,0,0,1,3.965-.8909,12.9636,12.9636,0,0,1,10.9545,6.5373c.1948.3374.4.6769.6063,1.0169a16.2631,16.2631,0,0,1,1.8774,3.8027c1.5837,5.553.5973,10.05-2.8521,13.0031A8.6912,8.6912,0,0,1,195.1042,330.2278Zm-4.9088-24.8992a7.3691,7.3691,0,0,0-3.3159.7356c-3.0645,1.5554-4.4454,4.4859-4.4779,9.502-.11,3.4867,2.6508,8.8011,7.46,11.6894a10.241,10.241,0,0,0,5.2418,1.5379h.0006a7.2616,7.2616,0,0,0,4.7443-1.6286c3.0351-2.599,3.8443-6.4749,2.4058-11.5208a15.2528,15.2528,0,0,0-1.7258-3.4526c-.2108-.3491-.4211-.6965-.6213-1.043A11.6557,11.6557,0,0,0,190.1954,305.3286Z" transform="translate(-16.2186 -9.4427)"/><path class="cls-1" d="M184.144,311.43c-1.8464,2.7457-1.3407,8.0256,1.3448,11.5376,3.5092,4.5837,8.6945,5.7016,11.9908,2.869,2.05-1.7637,2.7773-4.2,2.3941-7.2369-.6731-5.3486-3.6983-9.1506-8.6245-10.32C188.2268,307.5608,185.86,308.88,184.144,311.43Z" transform="translate(-16.2186 -9.4427)"/><path class="cls-4" d="M191.1953,309.0905c9.81,2.1027,10.4912,18.9511.781,16.868S181.558,307.0228,191.1953,309.0905Z" transform="translate(-16.2186 -9.4427)"/><path class="cls-1" d="M194.7682,322.1677c-.9112.0883-1.7462.171-2.5818.2508-.0259-.06-.0511-.1219-.0771-.1835,1.1656-.4959,2.329-.99,3.4988-1.4863a2.51,2.51,0,0,1-1.3589,3.6983c-1.12.5379-3.9015.0378-5.572-1.8562-1.04-1.18-1.9213-4.0444-.0651-5.497-.4588,2.4963-.311,4.72,2.6077,6.1386C192.4932,323.8488,193.5453,323.5742,194.7682,322.1677Z" transform="translate(-16.2186 -9.4427)"/><path class="cls-1" d="M188.9581,310.27c3.2521-1.7217,10.4561,3.2766,8.5621,9.4895C198.1016,317.7115,195.6263,310.1342,188.9581,310.27Z" transform="translate(-16.2186 -9.4427)"/></svg>